{"accessors" : [{"bufferView" : 0, "byteOffset" : 0, "componentType" : 5123, "count" : 408, "type" : "SCALAR", "max" : [407], "min" : [0]}, {"bufferView" : 1, "byteOffset" : 0, "componentType" : 5126, "count" : 408, "type" : "VEC3", "max" : [-1.4717479944229126, 7.760653018951416, 1.5040090084075928], "min" : [-2.876574993133545, 0.5388780236244202, 0.09918300062417984], "name" : "POSITION"}, {"bufferView" : 1, "byteOffset" : 12, "componentType" : 5126, "count" : 408, "type" : "VEC3", "max" : [0.9672499895095825, 1.0000044107437134, 0.9672513008117676], "min" : [-0.9672499895095825, -1.0000044107437134, -0.9672513008117676], "name" : "NORMAL"}, {"bufferView" : 0, "byteOffset" : 816, "componentType" : 5123, "count" : 1470, "type" : "SCALAR", "max" : [1469], "min" : [0]}, {"bufferView" : 2, "byteOffset" : 0, "componentType" : 5126, "count" : 1470, "type" : "VEC3", "max" : [-3.100688934326172, 3.801664113998413, 1.5082299709320068], "min" : [-4.73757791519165, 0.536728024482727, -0.12335599958896637], "name" : "POSITION"}, {"bufferView" : 2, "byteOffset" : 12, "componentType" : 5126, "count" : 1470, "type" : "VEC3", "max" : [0.999991238117218, 1.0000044107437134, 0.9672481417655945], "min" : [-0.9999911785125732, -1.0000044107437134, -0.967250406742096], "name" : "NORMAL"}, {"bufferView" : 0, "byteOffset" : 3756, "componentType" : 5123, "count" : 360, "type" : "SCALAR", "max" : [359], "min" : [0]}, {"bufferView" : 3, "byteOffset" : 0, "componentType" : 5126, "count" : 360, "type" : "VEC3", "max" : [-1.269821047782898, 7.308446884155273, 1.7045910358428955], "min" : [-3.1050360202789307, 5.880886077880859, -0.13062000274658203], "name" : "POSITION"}, {"bufferView" : 3, "byteOffset" : 12, "componentType" : 5126, "count" : 360, "type" : "VEC3", "max" : [0.9672481417655945, 0.6296655535697937, 0.9672473669052124], "min" : [-0.9672481417655945, -0.6296659111976624, -0.9672499895095825], "name" : "NORMAL"}, {"bufferView" : 0, "byteOffset" : 4476, "componentType" : 5123, "count" : 138, "type" : "SCALAR", "max" : [137], "min" : [0]}, {"bufferView" : 4, "byteOffset" : 0, "componentType" : 5126, "count" : 138, "type" : "VEC3", "max" : [2.726483106613159, 1.9352619647979736, 1.7250629663467407], "min" : [-1.2437779903411865, 0.5372999906539917, -0.15882399678230286], "name" : "POSITION"}, {"bufferView" : 4, "byteOffset" : 12, "componentType" : 5126, "count" : 138, "type" : "VEC3", "max" : [0.9999911785125732, 1.0000044107437134, 0.9999911785125732], "min" : [-0.9999911785125732, -1.0000044107437134, -0.9999911785125732], "name" : "NORMAL"}, {"bufferView" : 0, "byteOffset" : 4752, "componentType" : 5123, "count" : 198, "type" : "SCALAR", "max" : [197], "min" : [0]}, {"bufferView" : 5, "byteOffset" : 0, "componentType" : 5126, "count" : 198, "type" : "VEC3", "max" : [5.04690408706665, 3.102782964706421, 1.6996560096740723], "min" : [3.1833789348602295, 0.536329984664917, -0.16386400163173676], "name" : "POSITION"}, {"bufferView" : 5, "byteOffset" : 12, "componentType" : 5126, "count" : 198, "type" : "VEC3", "max" : [0.9672483801841736, 1.0000044107437134, 0.9672483801841736], "min" : [-0.9672483801841736, -1.0000044107437134, -0.9672483801841736], "name" : "NORMAL"}, {"bufferView" : 0, "byteOffset" : 5148, "componentType" : 5123, "count" : 108, "type" : "SCALAR", "max" : [107], "min" : [0]}, {"bufferView" : 6, "byteOffset" : 0, "componentType" : 5126, "count" : 108, "type" : "VEC3", "max" : [6.817612171173096, 0.5397260189056396, 4.658918857574463], "min" : [-5.546381950378418, 0.0712599977850914, 1.804123044013977], "name" : "POSITION"}, {"bufferView" : 6, "byteOffset" : 12, "componentType" : 5126, "count" : 108, "type" : "VEC3", "max" : [0.9999911785125732, 1.0000044107437134, 0.9999911785125732], "min" : [-0.9999911785125732, -1.0000044107437134, -0.9999911785125732], "name" : "NORMAL"}], "asset" : {"generator" : "Aspose.3D 21.11", "version" : "2.0"}, "buffers" : [{"uri" : "data:application/octet-stream;base64,", "byteLength" : 69760}], "bufferViews" : [{"buffer" : 0, "byteOffset" : 0, "byteLength" : 5364, "target" : 34963}, {"buffer" : 0, "byteOffset" : 5368, "byteLength" : 9792, "byteStride" : 24, "target" : 34962}, {"buffer" : 0, "byteOffset" : 15164, "byteLength" : 35280, "byteStride" : 24, "target" : 34962}, {"buffer" : 0, "byteOffset" : 50448, "byteLength" : 8640, "byteStride" : 24, "target" : 34962}, {"buffer" : 0, "byteOffset" : 59092, "byteLength" : 3312, "byteStride" : 24, "target" : 34962}, {"buffer" : 0, "byteOffset" : 62408, "byteLength" : 4752, "byteStride" : 24, "target" : 34962}, {"buffer" : 0, "byteOffset" : 67164, "byteLength" : 2592, "byteStride" : 24, "target" : 34962}], "materials" : [{"name" : "", "pbrMetallicRoughness" : {"baseColorFactor" : [0.29, 0.29, 0.1, 1], "metallicFactor" : 0, "roughnessFactor" : 0}, "emissiveFactor" : [0, 0, 0], "alphaMode" : "OPAQUE", "doubleSided" : false}, {"name" : "", "pbrMetallicRoughness" : {"baseColorFactor" : [1, 0, 0, 1], "metallicFactor" : 0, "roughnessFactor" : 0}, "emissiveFactor" : [0, 0, 0], "alphaMode" : "OPAQUE", "doubleSided" : false}, {"name" : "", "pbrMetallicRoughness" : {"baseColorFactor" : [1, 1, 1, 1], "metallicFactor" : 0, "roughnessFactor" : 0}, "emissiveFactor" : [0, 0, 0], "alphaMode" : "OPAQUE", "doubleSided" : false}, {"name" : "", "pbrMetallicRoughness" : {"baseColorFactor" : [0.15, 0.05, 0.02, 1], "metallicFactor" : 0, "roughnessFactor" : 0}, "emissiveFactor" : [0, 0, 0], "alphaMode" : "OPAQUE", "doubleSided" : false}, {"name" : "", "pbrMetallicRoughness" : {"baseColorFactor" : [0, 0.22, 0, 1], "metallicFactor" : 0, "roughnessFactor" : 0}, "emissiveFactor" : [0, 0, 0], "alphaMode" : "OPAQUE", "doubleSided" : false}, {"name" : "", "pbrMetallicRoughness" : {"baseColorFactor" : [0.15, 0.05, 0.02, 1], "metallicFactor" : 0, "roughnessFactor" : 0}, "emissiveFactor" : [0, 0, 0], "alphaMode" : "OPAQUE", "doubleSided" : false}], "meshes" : [{"primitives" : [{"attributes" : {"POSITION" : 1, "NORMAL" : 2}, "indices" : 0, "material" : 0, "mode" : 4}], "name" : ""}, {"primitives" : [{"attributes" : {"POSITION" : 4, "NORMAL" : 5}, "indices" : 3, "material" : 1, "mode" : 4}], "name" : ""}, {"primitives" : [{"attributes" : {"POSITION" : 7, "NORMAL" : 8}, "indices" : 6, "material" : 2, "mode" : 4}], "name" : ""}, {"primitives" : [{"attributes" : {"POSITION" : 10, "NORMAL" : 11}, "indices" : 9, "material" : 3, "mode" : 4}], "name" : ""}, {"primitives" : [{"attributes" : {"POSITION" : 13, "NORMAL" : 14}, "indices" : 12, "material" : 4, "mode" : 4}], "name" : ""}, {"primitives" : [{"attributes" : {"POSITION" : 16, "NORMAL" : 17}, "indices" : 15, "material" : 5, "mode" : 4}], "name" : ""}], "nodes" : [{"mesh" : 0, "name" : "polySurface483"}, {"mesh" : 1, "name" : "polySurface232"}, {"mesh" : 2, "name" : "polySurface353"}, {"mesh" : 3, "name" : "polySurface482"}, {"mesh" : 4, "name" : "polySurface283"}, {"mesh" : 5, "name" : "polySurface245"}], "scene" : 0, "scenes" : [{"nodes" : [0, 1, 2, 3, 4, 5]}]}