{"accessors" : [{"bufferView" : 0, "byteOffset" : 0, "componentType" : 5123, "count" : 6, "type" : "SCALAR", "max" : [5], "min" : [0]}, {"bufferView" : 1, "byteOffset" : 0, "componentType" : 5126, "count" : 6, "type" : "VEC3", "max" : [18.153133392333984, 0, 4.53823184967041], "min" : [-18.520769119262695, 0, -24.397987365722656], "name" : "POSITION"}, {"bufferView" : 1, "byteOffset" : 12, "componentType" : 5126, "count" : 6, "type" : "VEC2", "max" : [0.7645580172538757, -0], "min" : [0, -1], "name" : "TEXCOORD_0"}, {"bufferView" : 1, "byteOffset" : 20, "componentType" : 5126, "count" : 6, "type" : "VEC3", "max" : [0, 1.0000044107437134, 0], "min" : [0, 1.0000044107437134, 0], "name" : "NORMAL"}, {"bufferView" : 0, "byteOffset" : 12, "componentType" : 5123, "count" : 138, "type" : "SCALAR", "max" : [137], "min" : [0]}, {"bufferView" : 2, "byteOffset" : 0, "componentType" : 5126, "count" : 138, "type" : "VEC3", "max" : [2.726483106613159, 1.9352619647979736, -7.613711833953857], "min" : [-1.2437779903411865, 0.5372999906539917, -9.497598648071289], "name" : "POSITION"}, {"bufferView" : 2, "byteOffset" : 12, "componentType" : 5126, "count" : 138, "type" : "VEC3", "max" : [0.9999911785125732, 1.0000044107437134, 0.9999911785125732], "min" : [-0.9999911785125732, -1.0000044107437134, -0.9999911785125732], "name" : "NORMAL"}, {"bufferView" : 0, "byteOffset" : 288, "componentType" : 5123, "count" : 198, "type" : "SCALAR", "max" : [197], "min" : [0]}, {"bufferView" : 3, "byteOffset" : 0, "componentType" : 5126, "count" : 198, "type" : "VEC3", "max" : [5.04690408706665, 3.102782964706421, -7.6391191482543945], "min" : [3.1833789348602295, 0.536329984664917, -9.502638816833496], "name" : "POSITION"}, {"bufferView" : 3, "byteOffset" : 12, "componentType" : 5126, "count" : 198, "type" : "VEC3", "max" : [0.9672483801841736, 1.0000044107437134, 0.9672483801841736], "min" : [-0.9672483801841736, -1.0000044107437134, -0.9672483801841736], "name" : "NORMAL"}, {"bufferView" : 0, "byteOffset" : 684, "componentType" : 5123, "count" : 408, "type" : "SCALAR", "max" : [407], "min" : [0]}, {"bufferView" : 4, "byteOffset" : 0, "componentType" : 5126, "count" : 408, "type" : "VEC3", "max" : [-1.4717479944229126, 7.760653018951416, -7.834765911102295], "min" : [-2.876574993133545, 0.5388780236244202, -9.239591598510742], "name" : "POSITION"}, {"bufferView" : 4, "byteOffset" : 12, "componentType" : 5126, "count" : 408, "type" : "VEC3", "max" : [0.9672499895095825, 1.0000044107437134, 0.9672513008117676], "min" : [-0.9672499895095825, -1.0000044107437134, -0.9672513008117676], "name" : "NORMAL"}, {"bufferView" : 0, "byteOffset" : 1500, "componentType" : 5123, "count" : 1470, "type" : "SCALAR", "max" : [1469], "min" : [0]}, {"bufferView" : 5, "byteOffset" : 0, "componentType" : 5126, "count" : 1470, "type" : "VEC3", "max" : [-3.100688934326172, 3.801664113998413, -7.830544948577881], "min" : [-4.73757791519165, 0.536728024482727, -9.462130546569824], "name" : "POSITION"}, {"bufferView" : 5, "byteOffset" : 12, "componentType" : 5126, "count" : 1470, "type" : "VEC3", "max" : [0.999991238117218, 1.0000044107437134, 0.9672481417655945], "min" : [-0.9999911785125732, -1.0000044107437134, -0.967250406742096], "name" : "NORMAL"}, {"bufferView" : 0, "byteOffset" : 4440, "componentType" : 5123, "count" : 360, "type" : "SCALAR", "max" : [359], "min" : [0]}, {"bufferView" : 6, "byteOffset" : 0, "componentType" : 5126, "count" : 360, "type" : "VEC3", "max" : [-1.269821047782898, 7.308446884155273, -7.634183883666992], "min" : [-3.1050360202789307, 5.880886077880859, -9.46939468383789], "name" : "POSITION"}, {"bufferView" : 6, "byteOffset" : 12, "componentType" : 5126, "count" : 360, "type" : "VEC3", "max" : [0.9672481417655945, 0.6296655535697937, 0.9672473669052124], "min" : [-0.9672481417655945, -0.6296659111976624, -0.9672499895095825], "name" : "NORMAL"}, {"bufferView" : 0, "byteOffset" : 5160, "componentType" : 5123, "count" : 108, "type" : "SCALAR", "max" : [107], "min" : [0]}, {"bufferView" : 7, "byteOffset" : 0, "componentType" : 5126, "count" : 108, "type" : "VEC3", "max" : [6.817612171173096, 0.5397260189056396, -4.679855823516846], "min" : [-5.546381950378418, 0.0712599977850914, -7.534652233123779], "name" : "POSITION"}, {"bufferView" : 7, "byteOffset" : 12, "componentType" : 5126, "count" : 108, "type" : "VEC3", "max" : [0.9999911785125732, 1.0000044107437134, 0.9999911785125732], "min" : [-0.9999911785125732, -1.0000044107437134, -0.9999911785125732], "name" : "NORMAL"}], "asset" : {"generator" : "Aspose.3D 21.11", "version" : "2.0"}, "buffers" : [{"uri" : "data:application/octet-stream;base64,", "byteLength" : 69968}], "bufferViews" : [{"buffer" : 0, "byteOffset" : 0, "byteLength" : 5376, "target" : 34963}, {"buffer" : 0, "byteOffset" : 5380, "byteLength" : 192, "byteStride" : 32, "target" : 34962}, {"buffer" : 0, "byteOffset" : 5576, "byteLength" : 3312, "byteStride" : 24, "target" : 34962}, {"buffer" : 0, "byteOffset" : 8892, "byteLength" : 4752, "byteStride" : 24, "target" : 34962}, {"buffer" : 0, "byteOffset" : 13648, "byteLength" : 9792, "byteStride" : 24, "target" : 34962}, {"buffer" : 0, "byteOffset" : 23444, "byteLength" : 35280, "byteStride" : 24, "target" : 34962}, {"buffer" : 0, "byteOffset" : 58728, "byteLength" : 8640, "byteStride" : 24, "target" : 34962}, {"buffer" : 0, "byteOffset" : 67372, "byteLength" : 2592, "byteStride" : 24, "target" : 34962}], "materials" : [{"name" : "", "pbrMetallicRoughness" : {"baseColorFactor" : [0.31, 0.36, 0.31, 1], "metallicFactor" : 0, "roughnessFactor" : 0}, "emissiveFactor" : [0, 0, 0], "alphaMode" : "OPAQUE", "doubleSided" : false}, {"name" : "", "pbrMetallicRoughness" : {"baseColorFactor" : [0.17, 0.1, 0.1, 1], "metallicFactor" : 0, "roughnessFactor" : 0}, "emissiveFactor" : [0, 0, 0], "alphaMode" : "OPAQUE", "doubleSided" : false}, {"name" : "", "pbrMetallicRoughness" : {"baseColorFactor" : [0.08, 0.33, 0.08, 1], "metallicFactor" : 0, "roughnessFactor" : 0}, "emissiveFactor" : [0, 0, 0], "alphaMode" : "OPAQUE", "doubleSided" : false}, {"name" : "", "pbrMetallicRoughness" : {"baseColorFactor" : [0.13, 0.03, 0.03, 1], "metallicFactor" : 0, "roughnessFactor" : 0}, "emissiveFactor" : [0, 0, 0], "alphaMode" : "OPAQUE", "doubleSided" : false}, {"name" : "", "pbrMetallicRoughness" : {"baseColorFactor" : [0.5, 0.02, 0.02, 1], "metallicFactor" : 0, "roughnessFactor" : 0}, "emissiveFactor" : [0, 0, 0], "alphaMode" : "OPAQUE", "doubleSided" : false}, {"name" : "", "pbrMetallicRoughness" : {"baseColorFactor" : [1, 1, 1, 1], "metallicFactor" : 0, "roughnessFactor" : 0}, "emissiveFactor" : [0, 0, 0], "alphaMode" : "OPAQUE", "doubleSided" : false}, {"name" : "", "pbrMetallicRoughness" : {"baseColorFactor" : [0.19, 0.19, 0.19, 1], "metallicFactor" : 0, "roughnessFactor" : 0}, "emissiveFactor" : [0, 0, 0], "alphaMode" : "OPAQUE", "doubleSided" : false}], "meshes" : [{"primitives" : [{"attributes" : {"POSITION" : 1, "TEXCOORD_0" : 2, "NORMAL" : 3}, "indices" : 0, "material" : 0, "mode" : 4}], "name" : ""}, {"primitives" : [{"attributes" : {"POSITION" : 5, "NORMAL" : 6}, "indices" : 4, "material" : 1, "mode" : 4}], "name" : ""}, {"primitives" : [{"attributes" : {"POSITION" : 8, "NORMAL" : 9}, "indices" : 7, "material" : 2, "mode" : 4}], "name" : ""}, {"primitives" : [{"attributes" : {"POSITION" : 11, "NORMAL" : 12}, "indices" : 10, "material" : 3, "mode" : 4}], "name" : ""}, {"primitives" : [{"attributes" : {"POSITION" : 14, "NORMAL" : 15}, "indices" : 13, "material" : 4, "mode" : 4}], "name" : ""}, {"primitives" : [{"attributes" : {"POSITION" : 17, "NORMAL" : 18}, "indices" : 16, "material" : 5, "mode" : 4}], "name" : ""}, {"primitives" : [{"attributes" : {"POSITION" : 20, "NORMAL" : 21}, "indices" : 19, "material" : 6, "mode" : 4}], "name" : ""}], "nodes" : [{"mesh" : 0, "name" : "scene:pPlane1"}, {"mesh" : 1, "name" : "scene:polySurface482"}, {"mesh" : 2, "name" : "scene:polySurface283"}, {"mesh" : 3, "name" : "scene:polySurface483"}, {"mesh" : 4, "name" : "scene:polySurface232"}, {"mesh" : 5, "name" : "scene:polySurface353"}, {"mesh" : 6, "name" : "scene:polySurface245"}], "scene" : 0, "scenes" : [{"nodes" : [0, 1, 2, 3, 4, 5, 6]}]}